<svg width="26px" height="24px" viewBox="0 0 26 24" version="1.1" xmlns="http://www.w3.org/2000/svg" xmlns:xlink="http://www.w3.org/1999/xlink">
        <path d="M12.6751269,4.61852778e-14 C6.22712762,4.61852778e-14 1,5.25907237 1,11.7464776 C1,17.6094841 5.26942517,22.4690386 10.8508883,23.3502538 L10.8508883,15.1419438 L7.88650063,15.1419438 L7.88650063,11.7464776 L10.8508883,11.7464776 L10.8508883,9.15858174 C10.8508883,6.21462079 12.5939027,4.5884678 15.2607571,4.5884678 C16.5381117,4.5884678 17.8742069,4.81789119 17.8742069,4.81789119 L17.8742069,7.70862591 L16.4020007,7.70862591 C14.9516626,7.70862591 14.4993655,8.6140912 14.4993655,9.54302651 L14.4993655,11.7464776 L17.737389,11.7464776 L17.2197613,15.1419438 L14.4993655,15.1419438 L14.4993655,23.3502538 C20.0808286,22.4690386 24.3502538,17.6094841 24.3502538,11.7464776 C24.3502538,5.25907237 19.1231262,4.61852778e-14 12.6751269,4.61852778e-14 Z" fill="#1E1E1E"></path>
</svg>