<svg width="26px" height="24px" viewBox="0 0 26 24" xmlns="http://www.w3.org/2000/svg" xmlns:xlink="http://www.w3.org/1999/xlink"><path d="M13,1 C6.92486328,1 2,5.9549608 2,12.0672247 C2,17.5911965 6.02254102,22.169742 11.28125,23 L11.28125,15.2663444 L8.48828125,15.2663444 L8.48828125,12.0672247 L11.28125,12.0672247 L11.28125,9.62897679 C11.28125,6.85525359 12.9234727,5.32313467 15.4361133,5.32313467 C16.6396035,5.32313467 17.8984375,5.5392914 17.8984375,5.5392914 L17.8984375,8.26286624 L16.5113633,8.26286624 C15.1448926,8.26286624 14.71875,9.11597202 14.71875,9.99119063 L14.71875,12.0672247 L17.7695312,12.0672247 L17.2818359,15.2663444 L14.71875,15.2663444 L14.71875,23 C19.977459,22.169742 24,17.5911965 24,12.0672247 C24,5.9549608 19.0751367,1 13,1 Z" fill="none" stroke="#1E1E1E" stroke-width="1.3"></path></svg>