<svg width="26px" height="24px" viewBox="0 0 26 24" xmlns="http://www.w3.org/2000/svg" xmlns:xlink="http://www.w3.org/1999/xlink"><g transform="translate(2, 1)" fill="none" stroke="#1E1E1E" stroke-width="1.3"><path d="M11.0000218,0 C8.01257937,0 7.63798103,0.0126627249 6.46471407,0.0661954863 C5.29389232,0.119597254 4.49426307,0.305564652 3.79458202,0.577507587 C3.07123477,0.858576416 2.45779125,1.23470301 1.8462253,1.8462253 C1.23470301,2.45779125 0.858576416,3.07123477 0.577507587,3.79458202 C0.305564652,4.49426307 0.119597254,5.29389232 0.0661954863,6.46471407 C0.0126627249,7.63798103 0,8.01257937 0,11.0000218 C0,13.9874206 0.0126627249,14.362019 0.0661954863,15.5352859 C0.119597254,16.7061077 0.305564652,17.5057369 0.577507587,18.205418 C0.858576416,18.9287652 1.23470301,19.5422088 1.8462253,20.1537747 C2.45779125,20.765297 3.07123477,21.1414236 3.79458202,21.4225361 C4.49426307,21.6944353 5.29389232,21.8804027 6.46471407,21.9338045 C7.63798103,21.9873373 8.01257937,22 11.0000218,22 C13.9874206,22 14.362019,21.9873373 15.5352859,21.9338045 C16.7061077,21.8804027 17.5057369,21.6944353 18.205418,21.4225361 C18.9287652,21.1414236 19.5422088,20.765297 20.1537747,20.1537747 C20.765297,19.5422088 21.1414236,18.9287652 21.4225361,18.205418 C21.6944353,17.5057369 21.8804027,16.7061077 21.9338045,15.5352859 C21.9873373,14.362019 22,13.9874206 22,11.0000218 C22,8.01257937 21.9873373,7.63798103 21.9338045,6.46471407 C21.8804027,5.29389232 21.6944353,4.49426307 21.4225361,3.79458202 C21.1414236,3.07123477 20.765297,2.45779125 20.1537747,1.8462253 C19.5422088,1.23470301 18.9287652,0.858576416 18.205418,0.577507587 C17.5057369,0.305564652 16.7061077,0.119597254 15.5352859,0.0661954863 C14.362019,0.0126627249 13.9874206,0 11.0000218,0 Z"></path><circle cx="10.1538462" cy="11.8461538" r="5.07692308"></circle><circle cx="16.9230769" cy="5.07692308" r="1.12820513"></circle></g></svg>