<svg width="26px" height="24px" viewBox="0 0 26 24" version="1.1" xmlns="http://www.w3.org/2000/svg" xmlns:xlink="http://www.w3.org/1999/xlink">
    <g stroke="none" fill="rgb(30, 30, 30)" fill-rule="evenodd">
        <path d="M13.0050993,0 C9.83430205,0 9.43671268,0.0134399019 8.19143625,0.0702582457 C6.94875511,0.126937556 6.10004848,0.324318736 5.35742439,0.612952215 C4.58968158,0.911271692 3.93858785,1.31048312 3.28948693,1.95953769 C2.64043236,2.60863861 2.24122093,3.25973234 1.94290145,4.02747515 C1.65426797,4.77009924 1.45688679,5.61880588 1.40020748,6.86148701 C1.34338914,8.10676344 1.32994924,8.50435281 1.32994924,11.6751501 C1.32994924,14.845901 1.34338914,15.2434904 1.40020748,16.4887668 C1.45688679,17.7314479 1.65426797,18.5801546 1.94290145,19.3227787 C2.24122093,20.0905215 2.64043236,20.7416152 3.28948693,21.3907161 C3.93858785,22.0397707 4.58968158,22.4389821 5.35742439,22.7373479 C6.10004848,23.0259351 6.94875511,23.2233163 8.19143625,23.2799956 C9.43671268,23.3368139 9.83430205,23.3502538 13.0050993,23.3502538 C16.1758502,23.3502538 16.5734396,23.3368139 17.818716,23.2799956 C19.0613972,23.2233163 19.9101038,23.0259351 20.6527279,22.7373479 C21.4204707,22.4389821 22.0715644,22.0397707 22.7206654,21.3907161 C23.3697199,20.7416152 23.7689314,20.0905215 24.0672972,19.3227787 C24.3558843,18.5801546 24.5532655,17.7314479 24.6099448,16.4887668 C24.6667631,15.2434904 24.680203,14.845901 24.680203,11.6751501 C24.680203,8.50435281 24.6667631,8.10676344 24.6099448,6.86148701 C24.5532655,5.61880588 24.3558843,4.77009924 24.0672972,4.02747515 C23.7689314,3.25973234 23.3697199,2.60863861 22.7206654,1.95953769 C22.0715644,1.31048312 21.4204707,0.911271692 20.6527279,0.612952215 C19.9101038,0.324318736 19.0613972,0.126937556 17.818716,0.0702582457 C16.5734396,0.0134399019 16.1758502,0 13.0050993,0 Z M13.0050995,2.03045685 C16.1462911,2.03045685 16.5183868,2.04245843 17.7588924,2.09905732 C18.9059072,2.15135992 19.5288218,2.3430116 19.9433667,2.5041223 C20.4924973,2.7175356 20.8843932,2.97246409 21.2960427,3.3841603 C21.707739,3.7958098 21.9626674,4.18770573 22.1760807,4.73683637 C22.3371914,5.1513812 22.5288431,5.77429586 22.5811457,6.92131062 C22.6377446,8.16181629 22.6497462,8.53391195 22.6497462,11.6751503 C22.6497462,14.8163419 22.6377446,15.1884375 22.5811457,16.4289432 C22.5288431,17.5759579 22.3371914,18.1988726 22.1760807,18.6134174 C21.9626674,19.1625481 21.707739,19.554444 21.2960427,19.9660935 C20.8843932,20.3777897 20.4924973,20.6327182 19.9433667,20.8461315 C19.5288218,21.0072422 18.9059072,21.1988939 17.7588924,21.2511965 C16.5185736,21.3077954 16.1465246,21.319797 13.0050995,21.319797 C9.8636277,21.319797 9.49162543,21.3077954 8.25125986,21.2511965 C7.1042451,21.1988939 6.48133043,21.0072422 6.06678561,20.8461315 C5.51765497,20.6327182 5.12575904,20.3777897 4.71410954,19.9660935 C4.30246003,19.554444 4.04748484,19.1625481 3.83407154,18.6134174 C3.67296084,18.1988726 3.48130916,17.5759579 3.42900656,16.4289432 C3.37240767,15.1884375 3.36040609,14.8163419 3.36040609,11.6751503 C3.36040609,8.53391195 3.37240767,8.16181629 3.42900656,6.92131062 C3.48130916,5.77429586 3.67296084,5.1513812 3.83407154,4.73683637 C4.04748484,4.18770573 4.30241333,3.7958098 4.71410954,3.3841603 C5.12575904,2.97246409 5.51765497,2.7175356 6.06678561,2.5041223 C6.48133043,2.3430116 7.1042451,2.15135992 8.25125986,2.09905732 C9.49176553,2.04245843 9.86386119,2.03045685 13.0050995,2.03045685 L13.0050995,2.03045685 Z"></path>
        <path d="M12.4974861,16.2436548 C10.2546707,16.2436548 8.43654822,14.4255323 8.43654822,12.1827653 C8.43654822,9.93994993 10.2546707,8.12182741 12.4974861,8.12182741 C14.7402531,8.12182741 16.5583756,9.93994993 16.5583756,12.1827653 C16.5583756,14.4255323 14.7402531,16.2436548 12.4974861,16.2436548 Z M12.4974855,6.09137056 C9.13326923,6.09137056 6.40609137,8.81854842 6.40609137,12.1827647 C6.40609137,15.5469338 9.13326923,18.2741117 12.4974855,18.2741117 C15.8616546,18.2741117 18.5888325,15.5469338 18.5888325,12.1827647 C18.5888325,8.81854842 15.8616546,6.09137056 12.4974855,6.09137056 L12.4974855,6.09137056 Z"></path>
        <path d="M20.6192893,5.58378153 C20.6192893,6.42483215 19.9374721,7.10659898 19.0964215,7.10659898 C18.2554213,7.10659898 17.5736041,6.42483215 17.5736041,5.58378153 C17.5736041,4.74273091 18.2554213,4.06091371 19.0964215,4.06091371 C19.9374721,4.06091371 20.6192893,4.74273091 20.6192893,5.58378153"></path>
    </g>
</svg>