<svg width="26px" height="24px" viewBox="0 0 26 24" xmlns="http://www.w3.org/2000/svg" xmlns:xlink="http://www.w3.org/1999/xlink">
        <path d="M8.30152284,21.8923543 C17.8791878,21.8923543 23.1177665,13.957329 23.1177665,7.07611069 C23.1177665,6.85072998 23.1177665,6.6263645 23.1025381,6.40301425 C24.1216562,5.66586791 25.0013761,4.75314561 25.7005076,3.70758277 C24.750131,4.12870132 23.7419587,4.40487074 22.7096447,4.52687211 C23.7966944,3.87609247 24.6102777,2.85252895 24.9989848,1.64666907 C23.9768096,2.25322269 22.858524,2.68069142 21.6923858,2.91062846 C20.0782566,1.19427747 17.5134207,0.774194534 15.4360906,1.88593803 C13.3587606,2.99768153 12.2855584,5.36476625 12.8182741,7.65986704 C8.63136623,7.44996809 4.73043226,5.47237797 2.08629442,2.2192579 C0.704185539,4.59859265 1.41013998,7.64246549 3.69847716,9.17052694 C2.86978802,9.14596607 2.05916687,8.92241849 1.33502538,8.51875029 C1.33502538,8.54007008 1.33502538,8.56240511 1.33502538,8.58474013 C1.33570369,11.0635147 3.08299643,13.1984814 5.51269036,13.6893087 C4.7460605,13.8983849 3.94170618,13.9289475 3.16142132,13.7786488 C3.84360196,15.8998902 5.79855285,17.3530486 8.02639594,17.3948924 C6.18247212,18.8440619 3.90462895,19.6307581 1.55939086,19.628395 C1.14507977,19.6275996 0.73117164,19.6025142 0.319796954,19.5532681 C2.70115325,21.0814676 5.4719933,21.892067 8.30152284,21.8882934" fill="rgb(30, 30, 30)" fill-rule="nonzero"></path>
</svg>