<svg width="26px" height="24px" viewBox="0 0 26 24" xmlns="http://www.w3.org/2000/svg" xmlns:xlink="http://www.w3.org/1999/xlink"><path d="M8.55283695,20.957887 C17.232117,20.957887 21.979317,13.767167 21.979317,7.53140704 C21.979317,7.32716704 21.979317,7.12384704 21.965517,6.92144704 C22.8890418,6.25344503 23.686244,5.42633609 24.319797,4.47884704 C23.4585657,4.86046467 22.5449599,5.1107294 21.609477,5.22128704 C22.5945614,4.63155053 23.3318306,3.70399727 23.684077,2.61124704 C22.7577819,3.16090593 21.7443914,3.5482781 20.687637,3.75664704 C19.2249131,2.20128978 16.9006588,1.82061062 15.0181823,2.82807258 C13.1357058,3.83553453 12.1631699,5.98058671 12.645917,8.06040704 C8.85174103,7.87019662 5.31671467,6.07810445 2.92059695,3.13012704 C1.66812989,5.28628019 2.30786581,8.04463776 4.38155695,9.42936704 C3.63059886,9.40710999 2.89601398,9.20453117 2.23979695,8.83872704 C2.23979695,8.85804704 2.23979695,8.87828704 2.23979695,8.89852704 C2.24041164,11.1447926 3.82380832,13.0794994 6.02559695,13.524287 C5.33087698,13.7137519 4.60197109,13.7414478 3.89487695,13.605247 C4.51306905,15.527516 6.28464555,16.8443682 8.30351695,16.882287 C6.63255319,18.1955244 4.5683717,18.9084286 2.44311695,18.906287 C2.06766824,18.9055663 1.69258469,18.8828339 1.31979695,18.838207 C3.47778203,20.2230615 5.98871728,20.9576266 8.55283695,20.954207" fill="none" stroke="#1E1E1E" stroke-width="1.3"></path></svg>