<svg width="26px" height="24px" viewBox="0 0 26 24" xmlns="http://www.w3.org/2000/svg" xmlns:xlink="http://www.w3.org/1999/xlink"><path d="M16.0824363,1 C22.2461624,1 23.7055838,2.45942131 23.7055838,8.62314749 L23.7055838,15.3768525 C23.7055838,21.5405787 22.2461624,23 16.0824363,23 L9.32873125,23 C3.16500507,23 1.70558376,21.5405787 1.70558376,15.3768525 L1.70558376,8.62314749 C1.70558376,2.45942131 3.16500507,1 9.32873125,1 L16.0824363,1 Z M7.64383665,7.69565217 L6.06351106,7.69565217 C5.6076479,7.69565217 5.53167071,7.91010367 5.53167071,8.13987312 C5.53167071,8.55345815 6.06351106,10.6367012 8.00852717,13.3939347 C9.30013943,15.2780443 11.1387875,16.2890299 12.7950903,16.2890299 C13.7979892,16.2890299 13.9195527,16.0592604 13.9195527,15.6763113 L13.9195527,14.2517407 C13.9195527,13.7922018 14.0107253,13.7156119 14.3298295,13.7156119 C14.5577611,13.7156119 14.9680379,13.8381557 15.8949597,14.7419155 C16.9586404,15.814173 17.1409856,16.3043478 17.7336077,16.3043478 L19.2987379,16.3043478 C19.754601,16.3043478 19.9673372,16.0745784 19.8457737,15.6303574 C19.7090147,15.1861365 19.1923698,14.542782 18.5237705,13.7768838 C18.15908,13.3479808 17.6120442,12.8731239 17.4448944,12.6433545 C17.2169628,12.3369952 17.2777446,12.2144515 17.4448944,11.9387281 C17.429699,11.9387281 19.3443242,9.21213059 19.5418649,8.29305276 C19.648233,7.95605756 19.5418649,7.71097014 19.0708063,7.71097014 L17.5056762,7.71097014 C17.1544927,7.71097014 16.971397,7.88041329 16.860339,8.07944176 L16.8218814,8.15519109 C16.8218814,8.15519109 16.0165232,10.1158905 14.8920608,11.3872814 C14.5273702,11.7549126 14.3602204,11.8774563 14.1626797,11.8774563 C14.0563116,11.8774563 13.9195527,11.7549126 13.9195527,11.4179174 L13.9195527,8.2777348 C13.9195527,7.87946774 13.7979892,7.69565217 13.4636895,7.69565217 L11.0020285,7.69565217 C10.7589015,7.69565217 10.6069471,7.87946774 10.6069471,8.0632833 C10.6069471,8.4462324 11.1691784,8.53814018 11.2299601,9.61039765 L11.2299601,11.9387281 C11.2299601,12.444221 11.1387875,12.5361287 10.9412468,12.5361287 C10.4094064,12.5361287 9.11779417,10.5601114 8.34282681,8.30837073 C8.19087243,7.86414978 8.03891805,7.69565217 7.64383665,7.69565217 Z" fill="none" stroke="#1E1E1E" stroke-width="1.3"></path></svg>