<svg width="26px" height="24px" viewBox="0 0 26 24" xmlns="http://www.w3.org/2000/svg" xmlns:xlink="http://www.w3.org/1999/xlink">
        <path d="M16.9648181,-1.75859327e-13 C23.506844,-1.75859327e-13 25.0558376,1.54899355 25.0558376,8.09101949 L25.0558376,15.2592343 C25.0558376,21.8012603 23.506844,23.3502538 16.9648181,23.3502538 L9.79660325,23.3502538 C3.2545773,23.3502538 1.70558376,21.8012603 1.70558376,15.2592343 L1.70558376,8.09101949 C1.70558376,1.54899355 3.2545773,-1.75859327e-13 9.79660325,-1.75859327e-13 L16.9648181,-1.75859327e-13 Z M8.00829795,7.10659898 L6.3309796,7.10659898 C5.84713777,7.10659898 5.76649746,7.33421248 5.76649746,7.57808407 C5.76649746,8.01705295 6.3309796,10.2281554 8.39537141,13.1546146 C9.7662566,15.1543617 11.717752,16.2273967 13.4757106,16.2273967 C14.5401627,16.2273967 14.6691872,15.9835251 14.6691872,15.5770725 L14.6691872,14.0650686 C14.6691872,13.5773254 14.7659555,13.4960348 15.1046448,13.4960348 C15.3465657,13.4960348 15.7820234,13.6260997 16.7658351,14.585328 C17.8947994,15.7233954 18.0883361,16.2436548 18.7173305,16.2436548 L20.3785208,16.2436548 C20.8623626,16.2436548 21.0881555,15.9997832 20.959131,15.5282981 C20.8139784,15.056813 20.2656243,14.3739726 19.5559897,13.5610673 C19.1689162,13.1058403 18.588306,12.601839 18.4108973,12.3579674 C18.1689764,12.0328052 18.2334886,11.9027404 18.4108973,11.6100945 C18.3947693,11.6100945 20.4269049,8.71615153 20.6365697,7.74066514 C20.7494662,7.38298679 20.6365697,7.12285709 20.1365999,7.12285709 L18.4754096,7.12285709 C18.05608,7.12285709 17.8625432,7.35047058 17.7496468,7.59434218 C17.7496468,7.59434218 16.8948596,9.67537981 15.7013831,11.0248026 C15.3143096,11.4149972 15.1369009,11.5450621 14.9272361,11.5450621 C14.8143397,11.5450621 14.6691872,11.4149972 14.6691872,11.0573189 L14.6691872,7.72440703 C14.6691872,7.30169626 14.5401627,7.10659898 14.1853453,7.10659898 L11.5725994,7.10659898 C11.3145505,7.10659898 11.1532698,7.30169626 11.1532698,7.49679354 C11.1532698,7.9032462 11.7500081,8.00079484 11.8145204,9.13886229 L11.8145204,11.6100945 C11.8145204,12.146612 11.717752,12.2441606 11.5080872,12.2441606 C10.9436051,12.2441606 9.57271987,10.1468649 8.75018875,7.75692324 C8.58890814,7.28543816 8.42762753,7.10659898 8.00829795,7.10659898 Z" fill="rgb(30, 30, 30)"></path>
</svg>